<svg width="14" height="10" viewBox="0 0 14 10" fill="none" xmlns="http://www.w3.org/2000/svg">
<path d="M8.66467 6.02234L7.59198 7.09878C7.15695 7.53532 6.39145 7.54482 5.94717 7.09878L4.87447 6.02234L1.02148 9.88783C1.16483 9.95413 1.32293 9.99365 1.49104 9.99365H12.0479C12.216 9.99365 12.3741 9.95413 12.5174 9.88783L8.66467 6.02234Z" fill="white"/>
<path d="M12.0479 0.987793H1.49104C1.32293 0.987793 1.16483 1.02732 1.02148 1.09361L5.13864 5.22428C5.13864 5.22428 5.13914 5.22453 5.13964 5.22478C5.14014 5.22503 5.13989 5.22553 5.13989 5.22553L6.47851 6.56865C6.6206 6.71074 6.91854 6.71074 7.06063 6.56865L8.399 5.22578C8.399 5.22578 8.39925 5.22528 8.3995 5.22478C8.3995 5.22478 8.4 5.22453 8.4005 5.22428L12.5174 1.09361C12.3741 1.02732 12.216 0.987793 12.0479 0.987793Z" fill="white"/>
<path d="M0.485062 1.61841C0.410764 1.76851 0.365234 1.93511 0.365234 2.11348V8.86784C0.365234 9.0462 0.410764 9.21281 0.484812 9.36291L4.3443 5.49091L0.485062 1.61841Z" fill="white"/>
<path d="M13.0538 1.61841L9.19434 5.49091L13.0538 9.36316C13.1281 9.21306 13.1737 9.04645 13.1737 8.86809V2.11348C13.1737 1.93511 13.1281 1.76851 13.0538 1.61841Z" fill="white"/>
</svg>
