<svg width="15" height="15" viewBox="0 0 15 15" fill="none" xmlns="http://www.w3.org/2000/svg">
<path d="M13.6247 8.89099C14.5852 4.57844 10.8041 0.654218 6.36901 1.40023C3.94713 -0.0917932 0.738281 1.59439 0.738281 4.4762C0.738281 5.11997 0.901803 5.75373 1.23916 6.30528C0.339943 10.6382 4.16192 14.4908 8.59704 13.6938C11.7446 15.3493 15.1986 12.0382 13.625 8.89068L13.6247 8.89099ZM9.40403 11.4967C8.23905 11.977 6.31774 11.977 5.17339 11.3638C3.51785 10.4849 3.23176 8.49234 4.6625 8.49234C5.74587 8.49234 5.38819 9.74925 6.49158 10.2501C6.99246 10.4852 8.06521 10.4953 8.67834 10.0866C9.29147 9.67795 9.21988 9.02387 8.89283 8.71715C8.01394 7.89954 5.46949 8.21627 4.31452 6.79584C3.75236 6.04983 3.76268 5.01773 4.33485 4.29205C5.40791 2.89195 8.5758 2.81034 9.93494 3.85275C11.1918 4.83388 10.8445 6.11111 9.8327 6.11111C8.61676 6.11111 9.25021 4.51685 7.28825 4.51685C5.85751 4.51685 5.29566 5.52862 6.30712 6.0292C7.65595 6.72425 11.1202 6.48913 11.1202 9.14613C11.1306 10.2498 10.4561 11.0774 9.40342 11.4964L9.40403 11.4967Z" fill="white"/>
</svg>
